<svg width="84" height="66" viewBox="0 0 84 66" fill="none" xmlns="http://www.w3.org/2000/svg">
<g filter="url(#filter0_d_5_126)">
<path d="M47.4173 25.5564H58.6961C58.6961 25.5437 58.6961 25.531 58.6922 25.5183C58.4393 24.1687 58.058 22.8361 57.56 21.5542C57.0698 20.2977 56.4668 19.0877 55.7665 17.9581C55.074 16.8413 54.2725 15.7878 53.3933 14.8275C52.5101 13.8713 51.5413 12.9998 50.5064 12.2425C49.4716 11.481 48.3627 10.8295 47.2072 10.2964C46.0323 9.75493 44.8068 9.34032 43.5579 9.06533C40.9979 8.4942 38.2784 8.4942 35.7067 9.06533C34.4695 9.34032 33.2401 9.75493 32.0613 10.2964C30.9097 10.8253 29.8009 11.4853 28.7543 12.2468C27.7194 13.0041 26.7545 13.8713 25.8831 14.8232L20.374 8.84957C21.5956 7.51269 22.9573 6.29426 24.4046 5.23237C25.8558 4.16625 27.412 3.24397 29.0266 2.49938C30.6801 1.73786 32.4036 1.15827 34.1427 0.773277C37.7337 -0.0263138 41.5309 -0.0263138 45.1102 0.773277C46.8571 1.1625 48.5806 1.74209 50.2302 2.50361C51.8604 3.2482 53.4166 4.16625 54.8639 5.23237C56.3034 6.2858 57.6573 7.50423 58.8945 8.84534C60.1317 10.1865 61.2483 11.6629 62.2132 13.2241C63.1936 14.8021 64.0417 16.4943 64.7265 18.2585C65.4268 20.0523 65.9598 21.9265 66.3138 23.8218C66.4228 24.3929 66.4811 24.9768 66.5589 25.5564H78.5419L62.9796 42.4789L47.4173 25.5564ZM31.8551 34.0176H20.5763C20.5802 34.0303 20.5763 34.043 20.5802 34.0515C20.837 35.4222 21.2183 36.7549 21.7163 38.0198C22.1948 39.2594 22.7978 40.4694 23.502 41.6074C24.1984 42.7243 24.9999 43.782 25.8869 44.7466C26.7623 45.6984 27.7272 46.5657 28.7621 47.3272C29.8047 48.0888 30.9136 48.7445 32.0652 49.2776C33.244 49.8191 34.4695 50.2337 35.7145 50.5087C38.2706 51.0798 40.994 51.0798 43.5618 50.5087C44.8029 50.2337 46.0284 49.8191 47.2072 49.2776C48.3627 48.7445 49.4754 48.0888 50.5142 47.3272C51.5413 46.5742 52.5101 45.7027 53.3933 44.7466L58.8945 50.7287C57.6612 52.0698 56.3034 53.2882 54.8678 54.3417C53.4166 55.4078 51.8604 56.3301 50.238 57.0746C48.5884 57.8362 46.8649 58.4158 45.1219 58.8007C43.3284 59.1984 41.4842 59.4015 39.6362 59.4015C37.7882 59.4015 35.9441 59.1984 34.1583 58.8007C32.4114 58.4158 30.684 57.8319 29.0344 57.0704C27.4198 56.3258 25.8636 55.4078 24.4124 54.3417C22.9651 53.2798 21.6034 52.0571 20.3857 50.7287C19.1524 49.3876 18.0319 47.9111 17.0593 46.3415C16.071 44.7466 15.2229 43.0543 14.5498 41.3197C13.8573 39.5429 13.3243 37.6687 12.9625 35.7522C12.8574 35.1811 12.7952 34.5972 12.7174 34.0176H0.730543L16.2928 17.0951L31.8551 34.0176Z" fill="white"/>
</g>
<defs>
<filter id="filter0_d_5_126" x="0.73053" y="0.173584" width="82.8113" height="65.2279" filterUnits="userSpaceOnUse" color-interpolation-filters="sRGB">
<feFlood flood-opacity="0" result="BackgroundImageFix"/>
<feColorMatrix in="SourceAlpha" type="matrix" values="0 0 0 0 0 0 0 0 0 0 0 0 0 0 0 0 0 0 127 0" result="hardAlpha"/>
<feOffset dx="5" dy="6"/>
<feComposite in2="hardAlpha" operator="out"/>
<feColorMatrix type="matrix" values="0 0 0 0 0 0 0 0 0 0 0 0 0 0 0 0 0 0 0.8 0"/>
<feBlend mode="normal" in2="BackgroundImageFix" result="effect1_dropShadow_5_126"/>
<feBlend mode="normal" in="SourceGraphic" in2="effect1_dropShadow_5_126" result="shape"/>
</filter>
</defs>
</svg>
