<svg width="13" height="13" viewBox="0 0 13 13" fill="none" xmlns="http://www.w3.org/2000/svg">
<g clip-path="url(#clip0_146_69)">
<path d="M7.12784 0.674134L8.59407 3.6451C8.69603 3.85173 8.89318 3.99491 9.12123 4.02799L12.4 4.50444C12.9743 4.58796 13.2035 5.29356 12.788 5.69842L10.4155 8.01097C10.2507 8.17178 10.1753 8.40363 10.2143 8.6306L10.7743 11.8961C10.8725 12.468 10.2721 12.904 9.75849 12.6342L6.82603 11.0926C6.62211 10.9855 6.37832 10.9855 6.1744 11.0926L3.24194 12.6342C2.72834 12.9043 2.12797 12.468 2.22613 11.8961L2.7861 8.6306C2.82515 8.40363 2.74977 8.17178 2.58489 8.01097L0.212407 5.69842C-0.203029 5.29328 0.0261114 4.58769 0.600454 4.50444L3.8792 4.02799C4.10725 3.99491 4.3044 3.85173 4.40636 3.6451L5.87259 0.674134C6.12912 0.153755 6.87104 0.153755 7.12784 0.674134Z" fill="#ED8A19"/>
</g>
<defs>
<clipPath id="clip0_146_69">
<rect width="13" height="13" fill="white"/>
</clipPath>
</defs>
</svg>
